<svg width="244" height="137" viewBox="0 0 244 137" fill="none" xmlns="http://www.w3.org/2000/svg">
<g clip-path="url(#clip0_5911_10377)">
<path opacity="0.12" d="M121.904 23C77.222 23 41 59.0775 41 103.582H202.808C202.808 59.0775 166.586 23 121.904 23Z" fill="#8C5CFF"/>
<g clip-path="url(#clip1_5911_10377)">
<path d="M122.818 31.2427C111.477 31.2427 102.354 40.3833 102.354 51.4739V58.7864C102.354 69.9989 111.6 79.0177 122.818 79.0177C134.16 79.0177 143.282 69.8771 143.282 58.7864V51.4739C143.282 40.2614 134.16 31.2427 122.818 31.2427Z" fill="#131345"/>
<path d="M126.023 77.9209H122.818H119.613C102.108 77.9209 88.0544 91.9365 88.0544 109.121H157.582C157.582 91.9365 143.528 77.9209 126.023 77.9209Z" fill="#4694FA"/>
<path d="M122.818 40.1396C132.927 40.1396 141.063 48.1834 141.063 58.1772V65.4896C141.063 75.4834 132.927 83.5272 122.818 83.5272C112.71 83.5272 104.573 75.4834 104.573 65.4896V58.1772C104.573 48.1834 112.71 40.1396 122.818 40.1396Z" fill="url(#paint0_linear_5911_10377)"/>
<path d="M132.68 71.5832C127.133 77.0676 118.257 77.0676 112.71 71.5832L114.435 69.877C118.997 74.3863 126.393 74.3863 130.831 69.877L132.68 71.5832Z" fill="url(#paint1_linear_5911_10377)"/>
<path opacity="0.24" d="M140.816 81.5771C143.158 82.7959 145.378 84.3803 147.227 86.0865L123.927 109.121H112.956L140.816 81.5771Z" fill="#131345"/>
<path d="M141.31 109.121C137.858 102.296 130.831 97.7864 122.695 97.7864C114.559 97.7864 107.532 102.296 104.08 109.121H96.5603C100.382 98.5177 110.614 90.9614 122.695 90.9614C134.776 90.9614 145.008 98.5177 148.829 109.121H141.31Z" fill="#131345"/>
<path d="M138.967 48.5488L134.653 35.9957L117.641 35.1426L104.697 44.7707V60.3707C104.697 53.9113 109.997 48.6707 116.531 48.6707H138.967V48.5488V48.5488Z" fill="#131345"/>
</g>
</g>
<defs>
<linearGradient id="paint0_linear_5911_10377" x1="113.756" y1="-19.4026" x2="125.278" y2="86.4368" gradientUnits="userSpaceOnUse">
<stop stop-color="#EDAB93"/>
<stop offset="0.9986" stop-color="#FCCCBA"/>
</linearGradient>
<linearGradient id="paint1_linear_5911_10377" x1="125.209" y1="84.2683" x2="119.723" y2="56.0705" gradientUnits="userSpaceOnUse">
<stop offset="0.002617" stop-color="#F4987C"/>
<stop offset="0.9986" stop-color="#FCCCBA"/>
</linearGradient>
<clipPath id="clip0_5911_10377">
<rect width="244" height="137" fill="white"/>
</clipPath>
<clipPath id="clip1_5911_10377">
<rect width="78.8966" height="78" fill="white" transform="translate(83 31)"/>
</clipPath>
</defs>
</svg>
