<svg width="244" height="137" viewBox="0 0 244 137" fill="none" xmlns="http://www.w3.org/2000/svg">
<g clip-path="url(#clip0_5911_10373)">
<path opacity="0.12" d="M121.904 26C77.222 26 41 62.0775 41 106.582H202.808C202.808 62.0775 166.586 26 121.904 26Z" fill="#8C5CFF"/>
<g clip-path="url(#clip1_5911_10373)">
<path d="M122.818 34.2427C111.477 34.2427 102.354 43.3833 102.354 54.4739V61.7864C102.354 72.9989 111.6 82.0177 122.818 82.0177C134.16 82.0177 143.282 72.8771 143.282 61.7864V54.4739C143.282 43.2614 134.16 34.2427 122.818 34.2427Z" fill="#131345"/>
<path d="M126.023 80.9209H122.818H119.613C102.108 80.9209 88.0544 94.9365 88.0544 112.121H157.582C157.582 94.9365 143.528 80.9209 126.023 80.9209Z" fill="#4694FA"/>
<path d="M122.818 43.1396C132.927 43.1396 141.063 51.1834 141.063 61.1772V68.4896C141.063 78.4834 132.927 86.5272 122.818 86.5272C112.71 86.5272 104.573 78.4834 104.573 68.4896V61.1772C104.573 51.1834 112.71 43.1396 122.818 43.1396Z" fill="url(#paint0_linear_5911_10373)"/>
<path d="M132.68 74.5832C127.133 80.0676 118.257 80.0676 112.71 74.5832L114.435 72.877C118.997 77.3863 126.393 77.3863 130.831 72.877L132.68 74.5832Z" fill="url(#paint1_linear_5911_10373)"/>
<path opacity="0.24" d="M140.816 84.5771C143.158 85.7959 145.378 87.3803 147.227 89.0865L123.927 112.121H112.956L140.816 84.5771Z" fill="#131345"/>
<path d="M141.31 112.121C137.858 105.296 130.831 100.786 122.695 100.786C114.559 100.786 107.532 105.296 104.08 112.121H96.5603C100.382 101.518 110.614 93.9614 122.695 93.9614C134.776 93.9614 145.008 101.518 148.829 112.121H141.31Z" fill="#131345"/>
<path d="M138.967 51.5488L134.652 38.9957L117.641 38.1426L104.697 47.7707V63.3707C104.697 56.9113 109.997 51.6707 116.531 51.6707H138.967V51.5488V51.5488Z" fill="#131345"/>
</g>
</g>
<defs>
<linearGradient id="paint0_linear_5911_10373" x1="113.756" y1="-16.4026" x2="125.278" y2="89.4368" gradientUnits="userSpaceOnUse">
<stop stop-color="#EDAB93"/>
<stop offset="0.9986" stop-color="#FCCCBA"/>
</linearGradient>
<linearGradient id="paint1_linear_5911_10373" x1="125.209" y1="87.2683" x2="119.723" y2="59.0705" gradientUnits="userSpaceOnUse">
<stop offset="0.002617" stop-color="#F4987C"/>
<stop offset="0.9986" stop-color="#FCCCBA"/>
</linearGradient>
<clipPath id="clip0_5911_10373">
<rect width="244" height="137" fill="white"/>
</clipPath>
<clipPath id="clip1_5911_10373">
<rect width="78.8966" height="78" fill="white" transform="translate(83 34)"/>
</clipPath>
</defs>
</svg>
